# xmcd CD database file
#
# Track frame offsets:
#	150
#	33499
#	52102
#	64811
#	85752
#	100843
#	116046
#	126870
#	150856
#	167216
#
# Disc length: 2627 seconds
#
# Revision: 0
# Processed by: cddbd v1.5.2PL0 Copyright (c) Steve Scherf et al.
# Submitted via: CDex 1.51
#
DISCID=7f0a410a
DTITLE=Bernard Lubat - Soli Solo Saga
DYEAR=2008
DGENRE=Jazz
TTITLE0=D'ici d'en bas
TTITLE1=Nueit en Uzesta
TTITLE2=Cécile, ma fille
TTITLE3=Mes Nuits Blanches
TTITLE4=J'aime pour la vie
TTITLE5=Tout p'tit
TTITLE6=Loulou la gamelle
TTITLE7=Loulou Zoulou
TTITLE8=Men baou
TTITLE9=Articule
EXTD=YEAR: 2008
EXTT0=
EXTT1=
EXTT2=
EXTT3=
EXTT4=
EXTT5=
EXTT6=
EXTT7=
EXTT8=
EXTT9=
PLAYORDER=
